# xmcd
#
# Track frame offsets:
#	150
#	21280
#	36080
#	49825
#	66265
#	84435
#	98372
#	114180
#	129895
#	146907
#
# Disc length: 2127 seconds
#
# Revision: 2
# Processed by: cddbd v1.4PL0 Copyright (c) Steve Scherf et al.
# Submitted via: audiograbber 1.82.02
#
DISCID=7b084d0a
DTITLE=Band Of Oz - One More Step
DYEAR=1997
DGENRE=Beach
TTITLE0=One More Step (To Take)
TTITLE1=Baby Work Out
TTITLE2=Snap Your Fingers
TTITLE3=Heaven In The Afternoon
TTITLE4=What You Gonna Do
TTITLE5=Always Be My Girl
TTITLE6=Too Hot to Handle
TTITLE7=Rescue Me
TTITLE8=Thanks A Lot
TTITLE9=Over The Rainbow
EXTD=
EXTT0=
EXTT1=
EXTT2=
EXTT3=
EXTT4=
EXTT5=
EXTT6=
EXTT7=
EXTT8=
EXTT9=
PLAYORDER=
